<?xml version="1.0"?>
<!DOCTYPE svg PUBLIC "-//W3C//DTD SVG 1.0//EN" "http://www.w3.org/TR/2001/REC-SVG-20010904/DTD/svg10.dtd">
<svg xmlns="http://www.w3.org/2000/svg" xmlns:xlink="http://www.w3.org/1999/xlink" xmlns:sodipodi="http://sodipodi.sourceforge.net/DTD/sodipodi-0.dtd" xmlns:inkscape="http://www.inkscape.org/namespaces/inkscape" xmlns:realworld="http://www.rw-designer.com/export-svg" width="1630px" height="438px">
  <g inkscape:groupmode="layer" inkscape:label="Bottom Words">
    <path d="M 351 360C 359 360 363 362 363 369C 363 374 360 377 353 377C 343 377 343 374 343 371L 333 371C 333 380 340 387 353 387C 366 387 373 380 373 371C 373 356 365 355 365 355C 365 355 373 354 373 339C 373 330 366 323 353 323C 340 323 333 330 333 339L 343 339C 343 336 343 333 353 333C 360 333 363 336 363 341C 363 348 359 350 351 350C 351 350 351 360 351 360 z" fill="#000000" fill-rule="evenodd" />
    <path d="M 417 343L 417 367C 417 378.046 408.046 387 397 387C 385.954 387 377 378.046 377 367L 377 343C 377 331.954 385.954 323 397 323C 408.046 323 417 331.954 417 343 z M 397 335C 401.418 335 405 338.582 405 343L 405 367C 405 371.418 401.418 375 397 375C 392.582 375 389 371.418 389 367L 389 343C 389 338.582 392.582 335 397 335 z" fill="#000000" fill-rule="evenodd" />
    <path d="M 433 387L 421 387L 421 343L 433 343C 433 343 433 387 433 387 z M 433 339L 421 339L 421 327L 433 327C 433 327 433 339 433 339 z" fill="#000000" fill-rule="evenodd" />
    <path d="M 451 343L 439 343L 439 387L 451 387L 451 361C 451 361 451 355 457 355C 463 355 463 361 463 361L 463 387L 475 387L 475 357C 475 357 475 343 461 343C 451 343 451 347 451 347C 451 347 451 343 451 343 z" fill="#000000" fill-rule="evenodd" />
    <path d="M 555 387L 543 387L 543 323L 555 323C 555 323 555 387 555 387 z" fill="#000000" fill-rule="evenodd" />
    <path d="M 597 365C 597 377.15 588.046 387 577 387C 565.954 387 557 377.15 557 365C 557 352.85 565.954 343 577 343C 588.046 343 597 352.85 597 365 z M 577 355C 581.418 355 585 359.477 585 365C 585 370.523 581.418 375 577 375C 572.582 375 569 370.523 569 365C 569 359.477 572.582 355 577 355 z" fill="#000000" fill-rule="evenodd" />
    <path d="M 521 387C 509.954 387 501 377.15 501 365C 501 352.85 509.954 343 521 343C 530.154 343 537.859 349.768 540.234 359L 527.376 359C 525.916 356.578 523.613 355 521 355C 516.582 355 513 359.477 513 365C 513 370.523 516.582 375 521 375C 523.613 375 525.916 373.422 527.376 371L 540.234 371C 537.859 380.232 530.154 387 521 387 z" fill="#000000" fill-rule="evenodd" />
    <path d="M 820 346C 820 346 817 343 811 343C 801 343 801 347 801 347L 801 343L 789 343L 789 387L 801 387L 801 361C 801 361 801 355 807 355C 813 355 813 361 813 361L 813 387L 825 387L 825 361C 825 361 825 355 831 355C 837 355 837 361 837 361L 837 387L 849 387L 849 359C 849 359 849 343 831 343C 823 343 820 346 820 346 z" fill="#000000" fill-rule="evenodd" />
    <path d="M 599 357C 599 352 599 343 619 343C 639 343 639 354 639 359L 629 359C 629 356 627 353 619 353C 613 353 611 354 611 355C 611 357 613 359 619 359C 629 359 639 362 639 373C 639 378 639 387 619 387C 599 387 599 376 599 371L 609 371C 609 374 611 377 619 377C 625 377 627 376 627 375C 627 373 625 371 619 371C 609 371 599 368 599 357 z" fill="#000000" fill-rule="evenodd" />
    <path d="M 681 365C 681 366.37 680.824 367.7 680.606 369L 653.776 369C 655.017 372.513 657.73 375 661 375C 662.745 375 664.241 374.194 665.53 373L 679.576 373C 676.662 381.185 669.473 387 661 387C 649.954 387 641 377.15 641 365C 641 352.85 649.954 343 661 343C 672.046 343 681 352.85 681 365 z M 661 355C 664.27 355 666.983 357.487 668.224 361L 653.776 361C 655.017 357.487 657.73 355 661 355 z" fill="#000000" fill-rule="evenodd" />
    <path d="M 787 365C 787 377.15 778.046 387 767 387C 755.954 387 747 377.15 747 365C 747 352.85 755.954 343 767 343C 778.046 343 787 352.85 787 365 z M 767 355C 771.418 355 775 359.477 775 365C 775 370.523 771.418 375 767 375C 762.582 375 759 370.523 759 365C 759 359.477 762.582 355 767 355 z" fill="#000000" fill-rule="evenodd" />
    <path d="M 725 387C 713.954 387 705 377.15 705 365C 705 352.85 713.954 343 725 343C 734.154 343 741.859 349.768 744.234 359L 731.376 359C 729.916 356.578 727.613 355 725 355C 720.582 355 717 359.477 717 365C 717 370.523 720.582 375 725 375C 727.613 375 729.916 373.422 731.376 371L 744.234 371C 741.859 380.232 734.154 387 725 387 z" fill="#000000" fill-rule="evenodd" />
    <path d="M 865 344.906C 867.458 343.72 870.144 343 873 343C 884.046 343 893 352.85 893 365C 893 377.15 884.046 387 873 387C 870.144 387 867.458 386.28 865 385.094L 865 387L 853 387L 853 323L 865 323C 865 323 865 344.906 865 344.906 z M 873 355C 877.418 355 881 359.477 881 365C 881 370.523 877.418 375 873 375C 868.582 375 865 370.523 865 365C 865 359.477 868.582 355 873 355 z" fill="#000000" fill-rule="evenodd" />
    <path d="M 895 375C 895 357 923 357 923 361C 923 357 923 353 914 353C 907 353 907 357 907 357L 895 357C 895 349 899 343 915 343C 935 343 935 355 935 355L 935 387L 923 387L 923 383C 923 383 917 387 915 387L 907 387C 899 387 895 385 895 375 z M 923 369C 915 365 907 369 907 373C 907 375 907 377 911 377C 915 377 923 371 923 369 z" fill="#000000" fill-rule="evenodd" />
    <path d="M 965 343L 965 355L 957 355L 957 371C 957 375 959 375 965 375L 965 387L 957 387C 951 387 945 387 945 371L 945 355L 937 355L 937 343L 945 343L 945 331L 957 331L 957 343C 957 343 965 343 965 343 z" fill="#000000" fill-rule="evenodd" />
    <path d="M 989 357C 989 352 989 343 1009 343C 1029 343 1029 354 1029 359L 1019 359C 1019 356 1017 353 1009 353C 1003 353 1001 354 1001 355C 1001 357 1003 359 1009 359C 1019 359 1029 362 1029 373C 1029 378 1029 387 1009 387C 989 387 989 376 989 371L 999 371C 999 374 1001 377 1009 377C 1015 377 1017 376 1017 375C 1017 373 1015 371 1009 371C 999 371 989 368 989 357 z" fill="#000000" fill-rule="evenodd" />
    <path d="M 1071 365C 1071 366.37 1070.83 367.7 1070.61 369L 1043.78 369C 1045.02 372.513 1047.73 375 1051 375C 1052.74 375 1054.24 374.194 1055.53 373L 1069.58 373C 1066.67 381.185 1059.47 387 1051 387C 1039.95 387 1031 377.15 1031 365C 1031 352.85 1039.95 343 1051 343C 1062.05 343 1071 352.85 1071 365 z M 1051 355C 1054.27 355 1056.98 357.487 1058.22 361L 1043.78 361C 1045.02 357.487 1047.73 355 1051 355 z" fill="#000000" fill-rule="evenodd" />
    <path d="M 1093 387C 1081.95 387 1073 377.15 1073 365C 1073 352.85 1081.95 343 1093 343C 1102.15 343 1109.85 349.768 1112.23 359L 1099.38 359C 1097.92 356.578 1095.61 355 1093 355C 1088.58 355 1085 359.477 1085 365C 1085 370.523 1088.58 375 1093 375C 1095.61 375 1097.92 373.422 1099.38 371L 1112.23 371C 1109.85 380.232 1102.15 387 1093 387 z" fill="#000000" fill-rule="evenodd" />
    <path d="M 1139 387L 1151 387L 1151 343L 1139 343L 1139 369C 1139 369 1139 375 1133 375C 1127 375 1127 369 1127 369L 1127 343L 1115 343L 1115 373C 1115 373 1115 387 1129 387C 1139 387 1139 383 1139 383C 1139 383 1139 387 1139 387 z" fill="#000000" fill-rule="evenodd" />
    <path d="M 1193 387L 1181 387L 1181 343L 1193 343C 1193 343 1193 387 1193 387 z M 1193 339L 1181 339L 1181 327L 1193 327C 1193 327 1193 339 1193 339 z" fill="#000000" fill-rule="evenodd" />
    <path d="M 1223 343L 1223 355L 1215 355L 1215 371C 1215 375 1217 375 1223 375L 1223 387L 1215 387C 1209 387 1203 387 1203 371L 1203 355L 1195 355L 1195 343L 1203 343L 1203 331L 1215 331L 1215 343C 1215 343 1223 343 1223 343 z" fill="#000000" fill-rule="evenodd" />
    <path d="M 1167 343L 1155 343L 1155 387L 1167 387L 1167 361C 1167 361 1167 355 1173 355C 1179 355 1179 355.25 1179 355.25L 1179 343.25C 1178.38 343.187 1177.68 343 1177 343C 1167 343 1167 347 1167 347C 1167 347 1167 343 1167 343 z" fill="#000000" fill-rule="evenodd" />
    <path d="M 1225 343L 1237 343L 1245 367L 1253 343L 1265 343L 1251 387C 1251 403 1245 403 1225 403L 1225 391C 1231 391 1239 391 1239 387C 1239 387 1225 343 1225 343 z" fill="#000000" fill-rule="evenodd" />
  </g>
  <g inkscape:groupmode="layer" inkscape:label="Beaver">
    <path d="M 193.476 383.32C 174.399 379.274 163.421 366.86 162.446 348.126C 162.066 344.46 163.061 337.272 161.148 336.502C 149.297 331.734 136.439 325.673 123.946 320.032C 108.436 313.029 94.1106 302.786 80.5 292.57C 38.9238 261.363 14.6674 223.121 6.07 175.546C 2.87364 157.859 3.70648 137.833 12.156 121.969C 16.3508 114.093 22.1103 108.096 31.626 103.499C 31.626 103.499 29.2988 100.782 28.756 97.364C 28.756 97.364 29.4549 89.8249 29.648 87.017C 30.5521 73.8679 18.7973 67.38 28.454 57.0824C 35.3214 49.7593 49.7508 47.7984 59.732 48.877C 59.732 48.877 62.1825 42.9661 64.332 38.332C 67.1637 32.2272 76.2084 26.5994 82.316 23.7738C 94.9087 17.948 109.793 20.9374 123.46 25.8438C 123.46 25.8438 129.932 19.6162 133.828 17.4922C 141.659 13.2237 150.802 9.803 159.72 9.803C 171.398 9.803 181.081 14.6904 190.928 21.586C 204.302 30.9511 213 33.4218 213 33.4218C 213 33.4218 221.698 30.9506 235.072 21.5854C 244.919 14.6898 254.602 9.803 266.28 9.803C 275.198 9.803 284.341 13.2237 292.172 17.4922C 296.068 19.6162 302.54 25.8438 302.54 25.8438C 316.207 20.9374 331.091 17.948 343.684 23.7738C 349.792 26.5994 358.836 32.2272 361.668 38.332C 363.817 42.9661 366.268 48.877 366.268 48.877C 376.249 47.7984 390.679 49.7593 397.546 57.0824C 407.203 67.38 395.448 73.8679 396.352 87.017C 396.545 89.8249 397.244 97.364 397.244 97.364C 396.701 100.782 394.374 103.499 394.374 103.499C 403.89 108.096 409.649 114.093 413.844 121.969C 422.294 137.833 423.126 157.859 419.93 175.546C 411.333 223.121 387.076 261.363 345.5 292.57C 331.889 302.786 317.564 313.029 302.054 320.032C 289.561 325.673 276.703 331.734 264.852 336.502C 262.939 337.272 263.934 344.46 263.554 348.126C 262.579 366.86 251.601 379.274 232.524 383.32C 228.353 384.205 222.276 385 213 385C 203.724 385 197.647 384.205 193.476 383.32 z" fill="#e10000" fill-rule="evenodd" />
    <path d="M 176.454 368.594C 171.746 363.667 168.647 354.555 167.782 347.796C 167.176 343.061 167.04 334.29 167.04 334.29L 162.874 330.188C 144.077 322.602 123.4 315.475 107.624 304.938C 94.945 296.47 82.0162 286.6 70.344 276.79C 36.642 248.466 14.5228 207.644 10.522 166.61C 9.19717 153.022 10.4721 136.816 16.89 124.766C 21.2207 116.635 29.9662 108.661 38.874 106.625L 38.812 104.75C 38.812 104.75 35.0965 100.127 35.102 98.482C 35.1282 90.6643 37.0105 82.9916 35.01 75.4342C 33.8285 70.9706 28.4828 67.2502 31.17 63.4954C 36.077 56.6388 51.6612 53.6353 59.532 55.2304C 63.0435 55.942 65.2591 54.9507 65.698 51.5734C 66.5146 45.2897 70.0386 39.4416 73.568 36.6162C 78.5822 32.6022 84.3847 28.431 90.728 27.4228C 96.194 26.554 102.855 26.8272 108.322 27.6884C 113.364 28.4826 118.203 29.7155 122.306 32.347C 123.612 33.1843 125.95 33.3656 125.95 33.3656C 125.95 33.3656 131.314 26.5613 134.4 24.4242C 140.564 20.1552 148.292 15.7204 162.022 16.3878C 172.549 16.8995 180.855 22.2121 197.404 32.6504C 201.869 35.4669 207.721 39.7604 213 39.7604C 218.279 39.7604 224.131 35.4661 228.596 32.6496C 245.145 22.2113 253.451 16.8995 263.978 16.3878C 277.708 15.7204 285.436 20.1552 291.6 24.4242C 294.686 26.5613 300.05 33.3656 300.05 33.3656C 300.05 33.3656 302.388 33.1843 303.694 32.347C 307.797 29.7155 312.636 28.4826 317.678 27.6884C 323.145 26.8272 329.806 26.554 335.272 27.4228C 341.615 28.431 347.418 32.6022 352.432 36.6162C 355.961 39.4416 359.485 45.2897 360.302 51.5734C 360.741 54.9507 362.957 55.942 366.468 55.2304C 374.339 53.6353 389.923 56.6388 394.83 63.4954C 397.517 67.2502 392.171 70.9706 390.99 75.4342C 388.989 82.9916 390.872 90.6643 390.898 98.482C 390.904 100.127 387.188 104.75 387.188 104.75L 387.126 106.625C 396.034 108.661 404.779 116.635 409.11 124.766C 415.528 136.816 416.803 153.022 415.478 166.61C 411.477 207.644 389.358 248.466 355.656 276.79C 343.984 286.6 331.055 296.47 318.376 304.938C 302.6 315.475 281.923 322.602 263.126 330.188L 258.96 334.29C 258.96 334.29 258.824 343.061 258.218 347.796C 257.353 354.555 254.254 363.667 249.546 368.594C 241.91 376.585 231.348 378.982 213 379C 194.652 378.982 184.09 376.585 176.454 368.594 z" fill="#000000" fill-rule="evenodd" />
    <rect fill="#ffffff" height="82" width="30" x="215" y="173" />
    <rect fill="#ffffff" height="48" width="20" x="215" y="287" />
    <rect fill="#ffffff" height="48" width="20" x="191" y="287" />
    <path d="M 221 169L 221 151C 221 151 226.006 154.061 266.526 115.07C 291.244 126.374 299.309 136.684 277.942 165.64C 273.424 161.482 267.402 157 261 157C 249 157 239 169 239 169C 239 169 221 169 221 169 z" fill="#aa4c30" fill-rule="evenodd" />
    <path d="M 205 169L 205 151C 205 151 199.994 154.061 159.474 115.07C 134.756 126.374 126.691 136.684 148.058 165.64C 152.576 161.482 158.598 157 165 157C 177 157 187 169 187 169C 187 169 205 169 205 169 z" fill="#aa4c30" fill-rule="evenodd" />
    <path d="M 226.338 94.669C 229.637 90.7381 231.79 83.2415 238.22 79.8192C 282.087 56.471 293.927 40.4751 292.23 35.5952C 280.241 17.8608 258.62 21.9135 250.124 27.5878C 229.677 41.2443 213 47 213 47C 213 47 196.323 41.2447 175.876 27.5878C 167.38 21.9135 145.759 17.8608 133.77 35.5952C 132.073 40.4751 143.913 56.471 187.78 79.8192C 194.21 83.2415 196.363 90.7381 199.662 94.669C 202.956 98.5934 202.567 98.942 213 99C 223.433 98.942 223.044 98.5934 226.338 94.669 z" fill="#aa4c30" fill-rule="evenodd" />
    <path d="M 321.208 53.5694C 301.653 72.7113 272.715 100.337 248.844 104.427C 232.737 107.187 227.047 95.7433 243.918 84.5562C 260.344 73.6643 279.09 67.6702 298.716 44.0214C 306.81 34.2682 332.876 28.125 345.876 40C 356.122 49.3593 355.795 62.6974 352.476 70.3704C 347.876 81.0042 350.7 86.8201 341.312 95.074C 330.87 104.255 322.922 96.295 322.922 96.295C 322.922 96.295 332.284 91.1079 328.008 77.226C 344.704 63.5192 336.26 38.836 321.208 53.5694 z" fill="#aa4c30" fill-rule="evenodd" />
    <path d="M 284.822 97.839C 291.447 76.8604 293.242 91.7498 327.784 58.7068C 333.532 70.1412 322.42 76.0798 322.42 76.0798C 322.42 76.0798 327.999 84.9816 319.982 92.148C 309.761 87.575 299.684 92.5906 284.822 97.839 z" fill="#e10000" fill-rule="evenodd" />
    <path d="M 165 113C 185.198 107.864 193 107 213 107C 233 107 240.802 107.864 261 113C 230.575 145.1 213 151 213 151C 213 151 195.425 145.1 165 113 z" fill="#1d1d1d" fill-rule="evenodd" />
    <path d="M 383.68 99.549C 382.904 103.133 364.961 105.036 360.098 98.643C 356.288 93.6339 357.509 72.8825 363.686 63.5794C 366.44 59.4312 393.948 61.3287 386.568 69.2562C 379.727 76.6044 385.165 92.6869 383.68 99.549 z" fill="#aa4c30" fill-rule="evenodd" />
    <path d="M 179 360.938C 177.125 357.532 173 347.126 173 331.126L 187 327L 187 339L 239 339L 239 327L 253 331.126C 253 347.126 248.875 357.532 247 360.938C 243.006 368.194 232 372.75 213 372.75C 194 372.75 182.994 368.194 179 360.938 z" fill="#b55234" fill-rule="evenodd" />
    <path d="M 42.32 99.549C 43.0958 103.133 61.0391 105.036 65.902 98.643C 69.7123 93.6339 68.4908 72.8825 62.314 63.5794C 59.5598 59.4312 32.0521 61.3287 39.432 69.2562C 46.2726 76.6044 40.8346 92.6869 42.32 99.549 z" fill="#aa4c30" fill-rule="evenodd" />
    <path d="M 151.13 114.227C 144.421 105.595 135.79 104.301 131.94 102.592C 124.501 99.2901 118.616 98.861 118.616 98.861C 118.319 108.355 97.7075 107.901 95.312 105.274C 95.312 105.274 88.2997 104.868 82.902 106.451C 78.8842 107.629 76.2485 111.919 70.966 116.867C 59.799 127.327 53.0961 155.226 60.772 176.034C 64.1006 185.057 106.494 218.461 112.226 228.98C 120.07 243.375 97.006 257.5 97.006 257.5C 97.006 257.5 113.837 241.554 107.562 230.378C 102.481 221.33 54.7901 184.852 52.722 179.938C 36.7836 142.064 61.43 115.542 61.43 115.542C 61.43 115.542 50.7549 113.296 46.07 111.925C 34.9685 108.676 -2.7338 131.985 28.67 208.584C 62.2362 290.457 165 323.55 165 323.55C 165 323.55 167.642 217.743 163 203C 161.972 199.735 158.427 196.222 146.662 187.736C 140.302 183.149 140.263 176.852 140.914 173.928C 141.675 170.511 144.708 167.408 144.708 167.408C 144.708 167.408 129.501 152.335 130.956 137.512C 131.796 128.959 132.176 125.057 151.13 114.227 z" fill="#aa4c30" fill-rule="evenodd" />
    <rect fill="#ffffff" height="82" width="30" x="181" y="173" />
    <path d="M 104.792 53.5694C 124.347 72.7113 153.285 100.337 177.156 104.427C 193.263 107.187 198.953 95.7433 182.082 84.5562C 165.656 73.6643 146.91 67.6702 127.284 44.0214C 119.19 34.2682 93.124 28.125 80.124 40C 69.8779 49.3593 70.2049 62.6974 73.524 70.3704C 78.1239 81.0042 75.3004 86.8201 84.688 95.074C 95.1297 104.255 103.078 96.295 103.078 96.295C 103.078 96.295 93.7163 91.1079 97.992 77.226C 81.2958 63.5192 89.7403 38.836 104.792 53.5694 z" fill="#aa4c30" fill-rule="evenodd" />
    <path d="M 141.178 97.839C 134.553 76.8604 132.758 91.7498 98.216 58.7068C 92.4678 70.1412 103.58 76.0798 103.58 76.0798C 103.58 76.0798 98.0015 84.9816 106.018 92.148C 116.239 87.575 126.316 92.5906 141.178 97.839 z" fill="#e10000" fill-rule="evenodd" />
    <path d="M 274.87 114.227C 281.579 105.595 290.21 104.301 294.06 102.592C 301.499 99.2901 307.384 98.861 307.384 98.861C 307.681 108.355 328.292 107.901 330.688 105.274C 330.688 105.274 337.7 104.868 343.098 106.451C 347.116 107.629 349.752 111.919 355.034 116.867C 366.201 127.327 372.904 155.226 365.228 176.034C 361.899 185.057 319.506 218.461 313.774 228.98C 305.93 243.375 328.994 257.5 328.994 257.5C 328.994 257.5 312.163 241.554 318.438 230.378C 323.519 221.33 371.21 184.852 373.278 179.938C 389.216 142.064 364.57 115.542 364.57 115.542C 364.57 115.542 375.245 113.296 379.93 111.925C 391.031 108.676 428.734 131.985 397.33 208.584C 363.764 290.457 261 323.55 261 323.55C 261 323.55 258.358 217.743 263 203C 264.028 199.735 267.573 196.222 279.338 187.736C 285.698 183.149 285.737 176.852 285.086 173.928C 284.325 170.511 281.292 167.408 281.292 167.408C 281.292 167.408 296.499 152.335 295.044 137.512C 294.204 128.959 293.824 125.057 274.87 114.227 z" fill="#aa4c30" fill-rule="evenodd" />
  </g>
  <g inkscape:groupmode="layer" inkscape:label="Top Words">
    <polygon id="M1" fill="#000000" fill-rule="evenodd" points="397,91 397,129 383,129 383,71 403,71 413,99 423,71 443,71 443,129 429,129 429,91 417,129 409,129" />
    <polygon id="I1" fill="#000000" fill-rule="evenodd" points="447,71 461,71 461,129 447,129" />
    <polygon id="X1" fill="#000000" fill-rule="evenodd" points="492,87.789 503,71 519,71 500,100 519,129 503,129 492,112.211 481,129 465,129 484,100 465,71 481,71" />
    <path id="O1" d="M 569 100C 569 120 559 129 543 129C 527 129 517 120 517 100C 517 80 527 71 543 71C 559 71 569 80 569 100 z M 543 86.5C 551 86.5 554 91 554 100C 554 109 551 113.5 543 113.5C 535 113.5 532 109 532 100C 532 91 535 86.5 543 86.5 z" fill="#000000" fill-rule="evenodd" />
    <polygon id="M2" fill="#000000" fill-rule="evenodd" points="587,91 587,129 573,129 573,71 593,71 603,99 613,71 633,71 633,129 619,129 619,91 607,129 599,129" />
    <path id="S1" d="M 697 89L 685 89C 685 89 685 83 675 83C 665 83 663 85.5 663 89C 663 91 665 94 675 94C 690.5 94 697 99 697 111C 697 123 695 129 674 129C 653 129 651 119 651 111L 663 111C 663 111 663 117 673 117C 683 117 685 114.5 685 111C 685 109 683 106 673 106C 657.5 106 651 101 651 89C 651 77 653 71 674 71C 695 71 697 81 697 89 z" fill="#000000" fill-rule="evenodd" />
    <path id="tick" d="M 637 71L 647 71L 647 85C 647 95 643 101 637 101L 637 95C 641 95 641 89.125 641 85L 637 85C 637 85 637 71 637 71 z" fill="#000000" fill-rule="evenodd" />
    <path id="B1" d="M 755 100C 769 100 769 129 749 129L 717 129L 717 71L 749 71C 769 71 769 100 755 100 z M 743 106C 749 106 749 107.5 749 111.5C 749 115.5 749 117 743 117L 733 117L 733 106C 733 106 743 106 743 106 z M 743 83C 749 83 749 84.5 749 88.5C 749 92.5 749 94 743 94L 733 94L 733 83C 733 83 743 83 743 83 z" fill="#000000" fill-rule="evenodd" />
    <polygon id="E1" fill="#000000" fill-rule="evenodd" points="769,71 809,71 809,83 782.876,83 783,94 807,94 807,106 783,106 783,117 809,117 809,129 769,129" />
    <path id="A1" d="M 865 129L 849 129L 846.726 119L 831.274 119L 829 129L 813 129L 827 71L 851 71C 851 71 865 129 865 129 z M 839 85L 843.092 103L 834.908 103C 834.908 103 839 85 839 85 z" fill="#000000" fill-rule="evenodd" />
    <polygon id="E2" fill="#000000" fill-rule="evenodd" points="913,71 953,71 953,83 926.876,83 927,94 951,94 951,106 927,106 927,117 953,117 953,129 913,129" />
    <polygon id="V1" fill="#000000" fill-rule="evenodd" points="871,129 895,129 909,71 893,71 883,115 873,71 857,71" />
    <path id="R1" d="M 957 71L 991 71C 1001 71 1007 78.5 1007 88.5C 1007 98.5 1001 105 997 105L 1007 129L 991 129L 983 106L 973 106L 973 129L 957 129C 957 129 957 71 957 71 z M 973 94L 973 83L 987 83C 991 83 991 94 987 94C 987 94 973 94 973 94 z" fill="#000000" fill-rule="evenodd" />
    <path id="O2" d="M 1105 100C 1105 120 1095 129 1079 129C 1063 129 1053 120 1053 100C 1053 80 1063 71 1079 71C 1095 71 1105 80 1105 100 z M 1079 86.5C 1087 86.5 1090 91 1090 100C 1090 109 1087 113.5 1079 113.5C 1071 113.5 1068 109 1068 100C 1068 91 1071 86.5 1079 86.5 z" fill="#000000" fill-rule="evenodd" />
    <path id="O3" d="M 1159 100C 1159 120 1149 129 1133 129C 1117 129 1107 120 1107 100C 1107 80 1117 71 1133 71C 1149 71 1159 80 1159 100 z M 1133 86.5C 1141 86.5 1144 91 1144 100C 1144 109 1141 113.5 1133 113.5C 1125 113.5 1122 109 1122 100C 1122 91 1125 86.5 1133 86.5 z" fill="#000000" fill-rule="evenodd" />
    <polygon id="T1" fill="#000000" fill-rule="evenodd" points="1009,71 1053,71 1053,87 1039,87 1039,129 1023,129 1023,87 1009,87" />
    <polygon id="T2" fill="#000000" fill-rule="evenodd" points="1159,71 1203,71 1203,87 1189,87 1189,129 1173,129 1173,87 1159,87" />
    <polygon id="H1" fill="#000000" fill-rule="evenodd" points="1221,108 1221,129 1205,129 1205,71 1221,71 1221,92 1243,92 1243,71 1259,71 1259,129 1243,129 1243,108" />
  </g>
  <g inkscape:groupmode="layer" inkscape:label="layer 0" />
  <g inkscape:groupmode="layer" inkscape:label="PAINSAW-OUTLINE">
    <path d="M 1289.3 135C 1293.11 135 1295.78 138.615 1294.84 142.352L 1283.23 192.446L 1325.94 137.657C 1328.22 135.151 1328.94 135 1331.02 135L 1378.31 135C 1383.31 135 1385.23 137.952 1384.89 142L 1378.66 193.352L 1415.49 138.509C 1416.86 136.509 1418 135 1421 135L 1469 135C 1473.36 134.938 1477.09 140.043 1474.08 144.289L 1364 308.25C 1362.81 309.641 1362.2 310.926 1359.37 310.992L 1311 311C 1305.86 311 1304.68 306.886 1305.06 303.954L 1313.54 234.626L 1255.88 308.416C 1254.15 310.296 1252.94 310.969 1251 311L 1203 311C 1198 311 1196.6 306.066 1197.16 303.648C 1210.08 247.859 1235.12 139.906 1235.12 139.906C 1236.12 136.469 1237.94 135.001 1241 135.063L 1289.3 135C 1289.3 135 1289.3 135 1289.3 135 z" fill="#e10000" fill-rule="evenodd" />
    <path id="N1" d="M 1026.71 132.758C 1039.96 133.434 1055.63 138.147 1062.95 149.211C 1068.03 156.893 1067.49 172.177 1065.74 183.451C 1065.05 187.893 1063.43 190.157 1059.16 190.992L 1012.79 191.79C 1007.86 191.703 1006.21 187.674 1006.5 184.888C 1007.07 179.313 1006.51 176.566 1003.48 175.063C 994.945 170.833 980.183 173.581 975.758 182.016C 972.408 188.401 988.315 189.627 995.36 191.164C 1004.22 193.097 1013.17 195.271 1021.39 199.102C 1030.19 203.2 1039.75 208.773 1043.92 217.532C 1048.98 228.148 1046.36 242.273 1040.88 252.68L 1037.64 258.536C 1080.49 203.598 1131.25 138.5 1131.25 138.5C 1132.59 136.698 1132.7 135.125 1139 135L 1193.3 135.008C 1197.26 135.037 1199.23 138.466 1198.99 141.367L 1189 304.852C 1188.59 309.124 1186.6 311 1181.1 311L 1135.44 311C 1130.44 311 1128.61 307.224 1129.02 303.75L 1131.38 283L 1080.84 283L 1063.75 306C 1060.75 310.267 1060.7 310.901 1056.63 311L 1010.63 311C 1000.63 311 1002.67 303.357 1004.27 301.304L 1023.7 276.396C 1004.44 296.341 976.757 307.874 938.07 310.852C 919.99 312.244 899.035 310.029 885.11 298.414C 877.782 292.302 874.965 280.98 875.622 268.48L 858.718 306.98C 857.439 309.106 856.306 311.039 852.244 311L 806 311C 802 310.854 800.522 309.378 799.218 306.29L 783.086 233.164L 750.062 308.218C 748.406 310.823 746.19 309.377 743.574 311L 697 311C 690.616 311 690.49 304.906 691.508 302.586L 763.194 139.219C 764.652 135.963 766.322 135.047 769 135.047L 817.304 135.008C 817.304 135.008 821.613 134.707 822.738 139.084L 838.914 212.836L 871.414 138.781C 873.16 135.355 874.989 135 879.676 135L 925 135C 928.563 135 932.691 138.992 930.312 143.898L 886.372 243.992L 933.906 241.148C 939.167 240.472 941.273 245.232 940.65 248.886C 939.787 253.952 938.957 260.411 942.296 263.546C 950.423 271.177 968.365 266.937 975.312 258.218C 977.714 255.203 979.646 249.813 977.226 246.812C 973.458 242.138 966.127 242.216 960.468 240.21C 934.156 230.883 910.242 222.742 911.664 202.164C 913.242 179.339 931.466 157.536 951.296 146.125C 973.424 133.392 1001.19 132.176 1026.71 132.758 z M 1140.13 203.296L 1136.21 239L 1113.57 239C 1113.57 239 1140.13 203.296 1140.13 203.296 z" fill="#e10000" fill-rule="evenodd" />
    <path id="P1-1-1" d="M 703.882 135L 749.304 135.008C 753.587 135.072 755.816 140.149 754.492 143.414L 683.25 306.158C 681.971 309.68 679.666 311 675 311L 629 311C 627.857 310.986 626.929 310.576 626.094 310.096C 624.897 310.714 623.269 311 621.096 311L 575.438 311C 570.438 311 568.617 307.224 569.024 303.75L 571.382 283L 520.836 283L 503.75 306C 500.75 310.267 500.702 310.901 496.632 311L 450.626 311C 440.626 311 442.672 303.357 444.274 301.304L 493.972 237.592C 479.59 246.662 461.643 250.918 444.93 251L 411.258 251L 388 303.898C 385.344 311.19 382.993 311 379.056 311L 333.906 311C 325.308 310.547 326.587 304.684 327.508 302.586L 399 139.75C 400.989 134.902 403.971 135 405 135L 501 135C 513 135 521.454 139.114 528.032 150.727C 532.708 158.982 532.579 169.388 532.078 178.844C 531.839 183.367 530.828 187.791 529.424 192.144L 571.25 138.5C 572.592 136.698 572.695 135.125 579 135L 633.304 135.008C 637.265 135.037 639.227 138.466 638.992 141.367L 630.046 287.712L 694.084 141.553C 696.911 135.469 697.403 134.89 703.882 135 z M 580.132 203.296L 576.21 239L 553.57 239C 553.57 239 580.132 203.296 580.132 203.296 z M 465.046 179C 469.986 179.216 468.533 189.495 466.094 193.796C 461.978 201.057 453.166 206.968 444.82 207L 430.578 207L 442.868 179C 442.868 179 465.046 179 465.046 179 z" fill="#e10000" fill-rule="evenodd" />
    <path id="Outline" d="M 1533 223C 1533 155.621 1478.38 101 1411 101L 1277 101L 1277 77L 1411 77C 1491.63 77 1557 142.366 1557 223C 1557 303.634 1491.63 369 1411 369L 1277 369L 1277 345L 1411 345C 1478.38 345 1533 290.379 1533 223 z" fill="#e10000" fill-rule="evenodd" />
  </g>
  <g inkscape:groupmode="layer" inkscape:label="PAINSAW">
    <path d="M 1539 223C 1539 152.308 1481.69 95 1411 95L 1283 95L 1283 83L 1411 83C 1488.32 83 1551 145.68 1551 223C 1551 300.32 1488.32 363 1411 363L 1283 363L 1283 351L 1411 351C 1481.69 351 1539 293.692 1539 223 z" fill="#000000" fill-rule="evenodd" />
    <path id="P1" d="M 444.776 245L 407.342 245L 381 305L 333 305L 405 141L 501 141C 549 141 528.776 245 444.776 245 z M 438.952 173L 465.126 173C 485.126 173 473 213 445 213L 421.39 213C 421.39 213 438.952 173 438.952 173 z" fill="#000000" fill-rule="evenodd" />
    <path d="M 629 305L 677 305L 749 141L 701 141C 701 141 629 305 629 305 z" fill="#000000" fill-rule="evenodd" />
    <polygon fill="#000000" fill-rule="evenodd" points="745,305 697,305 769,141 817,141 837,232.112 877,141 925,141 853,305 805,305 785,213.888" />
    <path id="A2" d="M 623 305L 575 305L 578.072 277L 517.83 277L 497 305L 449 305L 577 141L 633 141C 633 141 623 305 623 305 z M 588.5 182L 581.586 245L 541.634 245C 541.634 245 588.5 182 588.5 182 z" fill="#000000" fill-rule="evenodd" />
    <polygon fill="#000000" fill-rule="evenodd" points="1271.27,217.534 1331,141 1379,141 1369.67,217.534 1421,141 1469,141 1359,305 1311,305 1322.11,213.888 1251,305 1203,305 1241,141 1289,141" />
    <path d="M 1183 305L 1135 305L 1138.07 277L 1077.83 277L 1057 305L 1009 305L 1137 141L 1193 141C 1193 141 1183 305 1183 305 z M 1148.5 182L 1141.59 245L 1101.63 245C 1101.63 245 1148.5 182 1148.5 182 z" fill="#000000" fill-rule="evenodd" />
    <path d="M 885.36 250.016L 934.482 247.054C 932.51 254.853 931.067 271.487 951.588 273C 981.951 275.238 994.417 244.692 975.22 238.706C 957.406 233.151 945.551 228.116 937.402 224.876C 914.557 215.793 916.195 202.968 919.798 191.672C 923.028 181.544 939.893 139.984 1007.6 138.587C 1043.43 137.848 1069.06 140.698 1059.4 185.039L 1012.58 185.808C 1016.55 159.207 979.461 166.331 971.842 177.082C 963.923 188.256 971.838 192.189 982.12 194.414C 998.52 197.964 1012.15 201.097 1023 206.488C 1038.2 214.037 1048.72 226.378 1032.79 255.136C 1011.45 293.66 965.559 304.781 930.974 305C 867.159 305.405 880.535 265.809 885.36 250.016 z" fill="#000000" fill-rule="evenodd" />
  </g>
  <g inkscape:groupmode="layer" inkscape:label="Silver">
    <path d="M 483 41C 483 41 475 25 487 17L 495 17C 490 23 488 26 506 41L 515 41C 517 40 519 41 521 13C 521.267 9 513 5 513 5L 523 5C 533 10 549 19 549 19L 547 57L 475 57C 475 57 483 41 483 41 z" fill="#c0c0c0" fill-rule="evenodd" />
    <path d="M 583 41C 583 41 575 25 587 17L 595 17C 590 23 588 26 606 41L 615 41C 617 40 619 41 621 13C 621.267 9 613 5 613 5L 623 5C 633 10 649 19 649 19L 647 57L 575 57C 575 57 583 41 583 41 z" fill="#c0c0c0" fill-rule="evenodd" />
    <path d="M 683 41C 683 41 675 25 687 17L 695 17C 690 23 688 26 706 41L 715 41C 717 40 719 41 721 13C 721.267 9 713 5 713 5L 723 5C 733 10 749 19 749 19L 747 57L 675 57C 675 57 683 41 683 41 z" fill="#c0c0c0" fill-rule="evenodd" />
    <path d="M 783 41C 783 41 775 25 787 17L 795 17C 790 23 788 26 806 41L 815 41C 817 40 819 41 821 13C 821.267 9 813 5 813 5L 823 5C 833 10 849 19 849 19L 847 57L 775 57C 775 57 783 41 783 41 z" fill="#c0c0c0" fill-rule="evenodd" />
    <path d="M 883 41C 883 41 875 25 887 17L 895 17C 890 23 888 26 906 41L 915 41C 917 40 919 41 921 13C 921.267 9 913 5 913 5L 923 5C 933 10 949 19 949 19L 947 57L 875 57C 875 57 883 41 883 41 z" fill="#c0c0c0" fill-rule="evenodd" />
    <path d="M 983 41C 983 41 975 25 987 17L 995 17C 990 23 988 26 1006 41L 1015 41C 1017 40 1019 41 1021 13C 1021.27 9 1013 5 1013 5L 1023 5C 1033 10 1049 19 1049 19L 1047 57L 975 57C 975 57 983 41 983 41 z" fill="#c0c0c0" fill-rule="evenodd" />
    <path d="M 1083 41C 1083 41 1075 25 1087 17L 1095 17C 1090 23 1088 26 1106 41L 1115 41C 1117 40 1119 41 1121 13C 1121.27 9 1113 5 1113 5L 1123 5C 1133 10 1149 19 1149 19L 1147 57L 1075 57C 1075 57 1083 41 1083 41 z" fill="#c0c0c0" fill-rule="evenodd" />
    <path d="M 1183 41C 1183 41 1175 25 1187 17L 1195 17C 1190 23 1188 26 1206 41L 1215 41C 1217 40 1219 41 1221 13C 1221.27 9 1213 5 1213 5L 1223 5C 1233 10 1249 19 1249 19L 1247 57L 1175 57C 1175 57 1183 41 1183 41 z" fill="#c0c0c0" fill-rule="evenodd" />
    <path d="M 1283 41C 1283 41 1275 25 1287 17L 1295 17C 1290 23 1288 26 1306 41L 1315 41C 1317 40 1319 41 1321 13C 1321.27 9 1313 5 1313 5L 1323 5C 1333 10 1349 19 1349 19L 1347 57L 1275 57C 1275 57 1283 41 1283 41 z" fill="#c0c0c0" fill-rule="evenodd" />
    <path d="M 1383 41C 1383 41 1375 25 1387 17L 1395 17C 1390 23 1388 26 1406 41L 1415 41C 1417 40 1419 41 1421 13C 1421.27 9 1413 5 1413 5L 1423 5C 1433 10 1449 19 1449 19L 1447 57L 1375 57C 1375 57 1383 41 1383 41 z" fill="#c0c0c0" fill-rule="evenodd" />
    <path d="M 1475.75 50.8475C 1475.75 50.8475 1476.83 32.9911 1491.22 32.0629L 1498.14 36.0629C 1490.81 38.759 1487.58 40.3571 1495.67 62.3475L 1503.46 66.8475C 1505.69 66.9815 1506.93 68.8475 1522.66 45.5988C 1524.89 42.268 1519.73 34.6706 1519.73 34.6706L 1528.39 39.6706C 1534.55 49.0007 1543.91 64.7949 1543.91 64.7949L 1523.18 96.7039L 1460.82 60.7039C 1460.82 60.7039 1475.75 50.8475 1475.75 50.8475 z" fill="#c0c0c0" fill-rule="evenodd" />
    <path d="M 1551.15 105.751C 1551.15 105.751 1561.01 90.8231 1573.94 97.2154L 1577.94 104.144C 1570.24 102.814 1566.64 102.581 1562.65 125.67L 1567.15 133.464C 1569.02 134.696 1569.15 136.928 1594.4 124.66C 1598 122.891 1597.33 113.732 1597.33 113.732L 1602.33 122.392C 1603 133.552 1603.21 151.909 1603.21 151.909L 1569.3 169.177L 1533.3 106.823C 1533.3 106.823 1551.15 105.751 1551.15 105.751 z" fill="#c0c0c0" fill-rule="evenodd" />
    <path d="M 1589 195C 1589 195 1605 187 1613 199L 1613 207C 1607 202 1604 200 1589 218L 1589 227C 1590 229 1589 231 1617 233C 1621 233.267 1625 225 1625 225L 1625 235C 1620 245 1611 261 1611 261L 1573 259L 1573 187C 1573 187 1589 195 1589 195 z" fill="#c0c0c0" fill-rule="evenodd" />
    <path d="M 1579.15 283.751C 1579.15 283.751 1597.01 284.823 1597.94 299.215L 1593.94 306.144C 1591.24 298.814 1589.64 295.582 1567.65 303.67L 1563.15 311.464C 1563.02 313.696 1561.15 314.928 1584.4 330.66C 1587.73 332.891 1595.33 327.732 1595.33 327.732L 1590.33 336.392C 1581 342.552 1565.21 351.909 1565.21 351.909L 1533.3 331.177L 1569.3 268.823C 1569.3 268.823 1579.15 283.751 1579.15 283.751 z" fill="#c0c0c0" fill-rule="evenodd" />
    <path d="M 1524.25 359.152C 1524.25 359.152 1539.17 369.012 1532.78 381.94L 1525.86 385.94C 1527.19 378.244 1527.42 374.64 1504.33 370.65L 1496.54 375.15C 1495.31 377.016 1493.07 377.151 1505.34 402.4C 1507.11 405.997 1516.27 405.33 1516.27 405.33L 1507.61 410.33C 1496.45 411 1478.09 411.21 1478.09 411.21L 1460.82 377.3L 1523.18 341.296C 1523.18 341.296 1524.25 359.152 1524.25 359.152 z" fill="#c0c0c0" fill-rule="evenodd" />
    <path d="M 1439 397C 1439 397 1447 413 1435 421L 1427 421C 1432 415 1434 412 1416 397L 1407 397C 1405 398 1403 397 1401 425C 1400.73 429 1409 433 1409 433L 1399 433C 1389 428 1373 419 1373 419L 1375 381L 1447 381C 1447 381 1439 397 1439 397 z" fill="#c0c0c0" fill-rule="evenodd" />
    <path d="M 1339 397C 1339 397 1347 413 1335 421L 1327 421C 1332 415 1334 412 1316 397L 1307 397C 1305 398 1303 397 1301 425C 1300.73 429 1309 433 1309 433L 1299 433C 1289 428 1273 419 1273 419L 1275 381L 1347 381C 1347 381 1339 397 1339 397 z" fill="#c0c0c0" fill-rule="evenodd" />
  </g>
</svg>
