<?xml version="1.0"?>
<!DOCTYPE svg PUBLIC "-//W3C//DTD SVG 1.0//EN" "http://www.w3.org/TR/2001/REC-SVG-20010904/DTD/svg10.dtd">
<svg xmlns="http://www.w3.org/2000/svg" xmlns:xlink="http://www.w3.org/1999/xlink" xmlns:sodipodi="http://sodipodi.sourceforge.net/DTD/sodipodi-0.dtd" xmlns:inkscape="http://www.inkscape.org/namespaces/inkscape" xmlns:realworld="http://www.rw-designer.com/export-svg" width="1000px" height="500px">
  <g inkscape:groupmode="layer" inkscape:label="Merged">
    <path d="M 697 288.5L 646.5 244.5L 636.5 246.5L 555.9 288.8L 555.85 288.825C 545.195 390.645 459.146 470 354.5 470C 307.362 470 263.978 453.915 229.569 426.91C 162.632 445.555 103.846 449.9 82 433.5L 46.5 373C 42.65 364.1 32.9 314.15 152.25 256.85L 152.052 262.123C 154.902 152.759 244.448 65 354.5 65C 438.479 65 510.47 116.116 541.15 188.924L 541.2 188.9L 592.5 162L 599.5 154L 592 86L 963 22.5C 963 22.5 697 288.5 697 288.5 z" fill="#000000" fill-rule="evenodd" />
    <path d="M 552.05 260.45C 552.05 260.45 542.95 265.05 526.95 272.9C 481.05 295.4 378.5 344.15 272.05 384.95C 263.7 388.15 252.4 392.05 239.5 396C 229.2 399.15 217.85 402.35 206.1 405.25C 167.8 414.75 125.25 421.2 101 413.5L 78.5 375.5C 108.75 380.5 145.35 375.8 178.8 368.2C 189.35 365.85 199.55 363.15 209.15 360.4C 232.6 353.7 252.5 346.5 264.5 342C 358.3 306.75 486 245.6 522.45 227.9C 528.9 224.75 532.5 223 532.5 223C 532.5 223 552.05 260.45 552.05 260.45 z" fill="#ffffff" fill-rule="evenodd" />
    <path d="M 159.75 323.15C 129.4 339.15 110 362.5 110 362.5C 94.8 362.8 81.6 361.5 71 358.5C 73.6 353.05 75.65 326.45 152.85 286.1C 154 298.85 156.35 311.2 159.75 323.15 z" fill="#ffffff" fill-rule="evenodd" />
    <polygon fill="#ffffff" fill-rule="evenodd" points="588.85,241.5 567.25,252.85 552.5,224.75 547.55,215.3 549.9,214.05 569.15,203.95" />
    <path d="M 696 252L 660 221C 656 217.5 652.5 217.5 649.5 217.5L 636 219.5L 614 177.5L 624.5 165C 626 163 627 159 626.5 155L 621 108L 885.5 63C 885.5 63 696 252 696 252 z" fill="#ffffff" fill-rule="evenodd" />
    <polygon fill="#ffffff" fill-rule="evenodd" points="620.1,225.2 603.85,233.75 584.15,196.2 600.4,187.65" />
    <path d="M 525.52 290.19C 514.405 374.72 442.059 440 354.5 440C 316.763 440 281.858 427.86 253.457 407.295C 269.405 401.745 287.052 395.55 302 389.5C 395.3 351.65 455.7 324 525.5 290.2C 525.5 290.2 525.52 290.19 525.52 290.19 z" fill="#f48517" fill-rule="evenodd" />
    <path d="M 354.5 95C 430.831 95 495.596 144.613 518.315 213.342L 518.3 213.35C 487 228.4 387.1 277.5 273.5 322.5C 247.756 332.7 223.612 340.895 201.466 347.145C 189.036 323.315 182 296.23 182 267.5C 182 172.25 259.25 95 354.5 95 z" fill="#f48517" fill-rule="evenodd" />
  </g>
</svg>
